<svg width="25" height="29" viewBox="0 0 25 29" fill="none" xmlns="http://www.w3.org/2000/svg">
<path d="M6.96318 26.2279C7.46309 26.1222 10.5093 26.1222 11.0092 26.2279C11.4366 26.3266 11.8987 26.5573 11.8987 27.0608C11.8738 27.5402 11.5926 27.9653 11.204 28.2352C10.7001 28.628 10.1088 28.8767 9.49057 28.9664C9.14868 29.0107 8.81276 29.0117 8.48279 28.9664C7.86362 28.8767 7.27227 28.628 6.76938 28.2342C6.37978 27.9653 6.09852 27.5402 6.07367 27.0608C6.07367 26.5573 6.53582 26.3266 6.96318 26.2279ZM9.04522 9C11.1254 9 13.2502 9.98702 14.5125 11.6247C15.3314 12.6792 15.7071 13.7327 15.7071 15.3703V15.7963C15.7071 17.0523 16.039 17.7925 16.7695 18.6456C17.3231 19.2741 17.5 20.0808 17.5 20.956C17.5 21.8302 17.2128 22.6601 16.6373 23.3339C15.884 24.1417 14.8215 24.6573 13.7372 24.747C12.1659 24.8809 10.5937 24.9937 9.0005 24.9937C7.40634 24.9937 5.83505 24.9263 4.26375 24.747C3.17846 24.6573 2.11602 24.1417 1.36367 23.3339C0.78822 22.6601 0.5 21.8302 0.5 20.956C0.5 20.0808 0.677901 19.2741 1.23049 18.6456C1.98384 17.7925 2.29392 17.0523 2.29392 15.7963V15.3703C2.29392 13.6883 2.71333 12.5885 3.577 11.5119C4.86106 9.9417 6.91935 9 8.95577 9H9.04522Z" fill="#BBC2D0"/>
<circle cx="17" cy="8" r="8" fill="#00C48C"/>
<path d="M16.97 4H17.97V11H16.82V5.23L15.41 5.63L15.13 4.65L16.97 4Z" fill="white"/>
</svg>
